:SAMPLES-PER-SECOND 30
:FULLY-SPECIFIED
:DEGREES
212
root  -52.9368 38.9039 4.75164 118.565 87.6767 126.235
RightUpLeg  19.5033 -6.04392 -7.22699
RightLeg  15.319 4.8683 0.378886
RightFoot  -22.4085 0.317245 4.77253
RightToes  5.82063e-011 0 -3.6325e-017
Spine  7.55436 0.29312 3.40923
Spine1  16.7976 1.4993 -2.84212
HEad  -3.50787 -2.65559 1.48638
LeftShoulder1  0.171952 2.99355 -27.5266
LeftArm  -12.0092 2.11067 -36.1195
LeftForeArm  61.0682 -78.824 -69.5487
LeftHand  0.0621192 1.27452 -1.97631
RightShoulder  -0.244391 -4.23106 26.1328
RightArm  -11.9903 -10.6864 42.498
RightForeArm  101.675 76.8367 123.252
RightHand  -0.232753 -0.577253 -5.57689
LeftUpLeg  -15.2662 3.52302 -1.02501
LeftLeg  19.4773 2.25296 1.21531
LeftFoot  3.78494 -0.516657 3.71583
LeftToes  2.58842e-009 -1.78069e-010 3.24654e-012
213
root  -51.8476 38.7523 4.46717 103.121 86.5014 111.251
RightUpLeg  17.844 -2.12385 -7.90376
RightLeg  22.902 1.28004 0.514123
RightFoot  -22.2577 0.770869 9.77302
RightToes  5.82063e-011 0 -3.6325e-017
Spine  7.85 0.718388 1.05957
Spine1  17.0089 1.64108 -3.00771
HEad  -3.0945 -3.13434 1.53978
LeftShoulder1  0.153332 3.04892 -27.5358
LeftArm  -11.5884 2.19903 -35.7899
LeftForeArm  60.8885 -78.8102 -69.4215
LeftHand  0.0533658 1.38499 -1.79772
RightShoulder  -0.298449 -4.38527 26.623
RightArm  -11.4883 -10.1861 42.2691
RightForeArm  96.6492 77.4081 118.753
RightHand  -0.318764 0.851536 -6.0617
LeftUpLeg  -14.6289 3.67982 -2.76687
LeftLeg  22.9023 2.76135 1.61647
LeftFoot  0.846842 -0.48204 4.46444
LeftToes  2.58842e-009 -1.78069e-010 3.24654e-012
214
root  -50.8524 38.7376 4.13164 91.9399 86.0573 100.333
RightUpLeg  14.1867 -1.81904 -9.57561
RightLeg  32.8057 1.47808 0.765928
RightFoot  -18.2098 0.804266 16.1911
RightToes  5.82063e-011 0 -3.6325e-017
Spine  8.36048 1.14762 0.365571
Spine1  17.0384 1.99265 -4.04547
HEad  -2.39789 -2.85658 0.995149
LeftShoulder1  0.185209 2.95299 -27.4672
LeftArm  -11.382 2.50375 -36.1611
LeftForeArm  58.1806 -78.6029 -66.7781
LeftHand  0.0500743 1.22607 -1.60151
RightShoulder  -0.256006 -4.26403 26.2922
RightArm  -11.3932 -10.2879 42.3701
RightForeArm  95.4977 77.5741 117.362
RightHand  -0.276704 -0.346184 -6.36066
LeftUpLeg  -13.3889 4.07248 -3.79191
LeftLeg  24.6181 3.19635 1.94416
LeftFoot  -1.6421 -0.413029 4.96864
LeftToes  2.58842e-009 -1.78069e-010 3.24654e-012
215
root  -49.8573 38.8511 3.8003 86.3407 85.518 95.0419
RightUpLeg  8.61913 -1.3681 -10.8531
RightLeg  44.1567 0.692755 0.387902
RightFoot  -8.24651 -0.273001 15.755
RightToes  5.82063e-011 0 -3.6325e-017
Spine  9.2144 1.21763 -0.333511
Spine1  16.3827 2.00226 -4.43607
HEad  -1.91323 -2.50812 0.284979
LeftShoulder1  0.203314 2.89472 -27.2066
LeftArm  -11.5862 3.10172 -36.4286
LeftForeArm  57.8007 -78.5687 -66.3582
LeftHand  0.0695083 1.00116 -2.01246
RightShoulder  -0.276337 -4.328 26.1935
RightArm  -11.0097 -9.85425 42.3693
RightForeArm  95.2839 77.6745 116.642
RightHand  -0.243238 -0.673575 -5.93986
LeftUpLeg  -11.1977 4.18784 -4.77623
LeftLeg  24.5025 3.60678 2.14398
LeftFoot  -3.43214 -0.324174 4.98579
LeftToes  2.58842e-009 -1.78069e-010 3.24654e-012
216
root  -48.8215 39.0129 3.5252 78.5543 85.3623 87.2609
RightUpLeg  1.98125 -0.265842 -10.7919
RightLeg  54.3343 0.464793 0.371516
RightFoot  2.98948 -0.905252 6.61869
RightToes  5.82063e-011 0 -3.6325e-017
Spine  9.09593 1.39296 -1.24088
Spine1  16.4972 1.85637 -3.72883
HEad  -2.34263 -1.95665 -0.198897
LeftShoulder1  0.165902 3.00832 -27.3077
LeftArm  -11.6578 3.55775 -36.2515
LeftForeArm  59.2266 -78.7008 -68.275
LeftHand  0.0577439 1.1047 -1.7484
RightShoulder  -0.196029 -4.09435 25.5201
RightArm  -11.198 -9.67004 42.6634
RightForeArm  96.9117 77.5136 118.167
RightHand  -0.181153 -1.89922 -5.78002
LeftUpLeg  -9.04298 4.56981 -5.20599
LeftLeg  23.963 3.93333 2.26175
LeftFoot  -5.08705 -0.242906 5.00286
LeftToes  2.58842e-009 -1.78069e-010 3.24654e-012
217
root  -47.8599 39.1208 3.28456 77.5983 85.3253 86.5402
RightUpLeg  -2.88399 -0.141363 -10.7612
RightLeg  60.3835 1.74718 2.82967
RightFoot  1.31809 -0.852344 7.75094
RightToes  5.82063e-011 0 -3.6325e-017
Spine  9.37099 1.35256 -2.01214
Spine1  16.615 1.46514 -3.42966
HEad  -2.46019 -1.55652 -0.531519
LeftShoulder1  0.177585 2.97308 -27.2912
LeftArm  -11.6942 3.91425 -36.1768
LeftForeArm  60.0828 -78.777 -69.5998
LeftHand  0.0478087 1.39821 -1.64218
RightShoulder  -0.187569 -4.07158 25.2755
RightArm  -11.2627 -9.22257 42.8352
RightForeArm  96.7725 77.4723 118.38
RightHand  -0.211001 -1.65239 -6.37028
LeftUpLeg  -6.88401 4.5195 -5.54839
LeftLeg  23.5924 4.38992 2.44911
LeftFoot  -6.63053 -0.165667 4.9975
LeftToes  2.58842e-009 -1.78069e-010 3.24654e-012
218
root  -46.8825 39.2575 3.06558 81.4748 85.7721 90.8634
RightUpLeg  -6.79582 -0.863854 -10.145
RightLeg  62.6065 2.79616 5.29442
RightFoot  0.656717 -1.01061 9.66935
RightToes  5.82063e-011 0 -3.6325e-017
Spine  9.9217 1.01068 -2.30514
Spine1  16.477 0.823512 -3.02704
HEad  -2.57925 -1.61413 -0.611147
LeftShoulder1  0.144929 3.07161 -27.3411
LeftArm  -11.6285 3.90123 -36.2129
LeftForeArm  60.1048 -78.7777 -69.5941
LeftHand  0.0515057 1.48095 -1.79991
RightShoulder  -0.132409 -3.89796 25.2083
RightArm  -11.6432 -9.1508 43.1308
RightForeArm  96.9486 77.4315 118.683
RightHand  -0.277175 -0.448629 -6.50107
LeftUpLeg  -4.31885 4.53579 -5.32489
LeftLeg  22.857 4.15982 2.25885
LeftFoot  -8.02671 -0.0986986 5.08105
LeftToes  2.58842e-009 -1.78069e-010 3.24654e-012
219
root  -45.8881 39.3741 2.88181 84.8616 86.0984 94.3461
RightUpLeg  -10.6179 -1.82374 -9.35674
RightLeg  61.793 2.92607 5.41143
RightFoot  -0.654139 -1.00569 10.6616
RightToes  5.82063e-011 0 -3.6325e-017
Spine  10.0842 0.802346 -2.67293
Spine1  16.3002 0.403578 -2.63583
HEad  -2.72329 -2.19167 -0.433312
LeftShoulder1  0.180325 2.9591 -26.9927
LeftArm  -11.7141 4.0084 -36.7281
LeftForeArm  59.309 -78.7292 -69.1668
LeftHand  0.0310256 1.39191 -1.12586
RightShoulder  -0.162071 -3.9863 25.4916
RightArm  -12.0315 -9.01685 43.0469
RightForeArm  98.0392 77.3477 119.495
RightHand  -0.257119 -0.922975 -6.62553
LeftUpLeg  -1.96027 5.21947 -4.98537
LeftLeg  21.8548 3.36398 1.78773
LeftFoot  -9.33027 -0.0362796 5.27184
LeftToes  2.58842e-009 -1.78069e-010 3.24654e-012
